<mxfile host="app.diagrams.net" agent="Mozilla/5.0 (Macintosh; Intel Mac OS X 10_15_7) AppleWebKit/537.36 (KHTML, like Gecko) Chrome/136.0.0.0 Safari/537.36" version="26.1.3">
  <diagram name="Page-1" id="2YBvvXClWsGukQMizWep">
    <mxGraphModel dx="989" dy="548" grid="1" gridSize="10" guides="1" tooltips="1" connect="1" arrows="1" fold="1" page="1" pageScale="1" pageWidth="850" pageHeight="1100" math="0" shadow="0">
      <root>
        <mxCell id="0" />
        <mxCell id="1" parent="0" />
        <mxCell id="4zu3oJTmtso76oh-K1po-4" style="edgeStyle=orthogonalEdgeStyle;rounded=0;orthogonalLoop=1;jettySize=auto;html=1;entryX=0;entryY=0.25;entryDx=0;entryDy=0;fontFamily=Lucida Console;" edge="1" parent="1" source="4zu3oJTmtso76oh-K1po-1" target="4zu3oJTmtso76oh-K1po-3">
          <mxGeometry relative="1" as="geometry" />
        </mxCell>
        <mxCell id="4zu3oJTmtso76oh-K1po-1" value="Company Data-Base (Web)" style="shape=cylinder;whiteSpace=wrap;html=1;boundedLbl=1;backgroundOutline=1;fontFamily=Lucida Console;" vertex="1" parent="1">
          <mxGeometry x="40" y="40" width="60" height="80" as="geometry" />
        </mxCell>
        <mxCell id="4zu3oJTmtso76oh-K1po-5" style="edgeStyle=orthogonalEdgeStyle;rounded=0;orthogonalLoop=1;jettySize=auto;html=1;entryX=0;entryY=0.75;entryDx=0;entryDy=0;fontFamily=Lucida Console;" edge="1" parent="1" source="4zu3oJTmtso76oh-K1po-2" target="4zu3oJTmtso76oh-K1po-3">
          <mxGeometry relative="1" as="geometry" />
        </mxCell>
        <mxCell id="4zu3oJTmtso76oh-K1po-2" value="Solar Cadastre" style="shape=cylinder;whiteSpace=wrap;html=1;boundedLbl=1;backgroundOutline=1;fontFamily=Lucida Console;" vertex="1" parent="1">
          <mxGeometry x="40" y="140" width="60" height="80" as="geometry" />
        </mxCell>
        <mxCell id="4zu3oJTmtso76oh-K1po-7" value="" style="edgeStyle=orthogonalEdgeStyle;rounded=0;orthogonalLoop=1;jettySize=auto;html=1;fontFamily=Lucida Console;" edge="1" parent="1" source="4zu3oJTmtso76oh-K1po-3" target="4zu3oJTmtso76oh-K1po-6">
          <mxGeometry relative="1" as="geometry" />
        </mxCell>
        <mxCell id="4zu3oJTmtso76oh-K1po-3" value="Data Acquisition" style="rounded=0;whiteSpace=wrap;html=1;fontFamily=Lucida Console;" vertex="1" parent="1">
          <mxGeometry x="140" y="100" width="120" height="60" as="geometry" />
        </mxCell>
        <mxCell id="4zu3oJTmtso76oh-K1po-10" value="" style="edgeStyle=orthogonalEdgeStyle;rounded=0;orthogonalLoop=1;jettySize=auto;html=1;fontFamily=Lucida Console;" edge="1" parent="1" source="4zu3oJTmtso76oh-K1po-6" target="4zu3oJTmtso76oh-K1po-9">
          <mxGeometry relative="1" as="geometry" />
        </mxCell>
        <mxCell id="4zu3oJTmtso76oh-K1po-6" value="Embedding Products&lt;div&gt;&lt;font style=&quot;font-size: 10px;&quot;&gt;(Arctic Embed L V2.0)&lt;/font&gt;&lt;/div&gt;" style="rounded=0;whiteSpace=wrap;html=1;fontFamily=Lucida Console;" vertex="1" parent="1">
          <mxGeometry x="140" y="200" width="120" height="60" as="geometry" />
        </mxCell>
        <mxCell id="4zu3oJTmtso76oh-K1po-13" value="" style="edgeStyle=orthogonalEdgeStyle;rounded=0;orthogonalLoop=1;jettySize=auto;html=1;exitX=0.5;exitY=1;exitDx=0;exitDy=0;fontFamily=Lucida Console;" edge="1" parent="1" source="4zu3oJTmtso76oh-K1po-14" target="4zu3oJTmtso76oh-K1po-12">
          <mxGeometry relative="1" as="geometry">
            <Array as="points">
              <mxPoint x="540" y="280" />
              <mxPoint x="200" y="280" />
            </Array>
          </mxGeometry>
        </mxCell>
        <mxCell id="4zu3oJTmtso76oh-K1po-15" value="" style="edgeStyle=orthogonalEdgeStyle;rounded=0;orthogonalLoop=1;jettySize=auto;html=1;fontFamily=Lucida Console;" edge="1" parent="1" source="4zu3oJTmtso76oh-K1po-9" target="4zu3oJTmtso76oh-K1po-14">
          <mxGeometry relative="1" as="geometry" />
        </mxCell>
        <mxCell id="4zu3oJTmtso76oh-K1po-9" value="Mapping Ordinal Data" style="rounded=0;whiteSpace=wrap;html=1;fontFamily=Lucida Console;" vertex="1" parent="1">
          <mxGeometry x="320" y="200" width="120" height="60" as="geometry" />
        </mxCell>
        <mxCell id="4zu3oJTmtso76oh-K1po-17" value="" style="edgeStyle=orthogonalEdgeStyle;rounded=0;orthogonalLoop=1;jettySize=auto;html=1;" edge="1" parent="1" source="4zu3oJTmtso76oh-K1po-12" target="4zu3oJTmtso76oh-K1po-16">
          <mxGeometry relative="1" as="geometry" />
        </mxCell>
        <mxCell id="4zu3oJTmtso76oh-K1po-12" value="Agglomerative Clustering of Companies" style="rounded=0;whiteSpace=wrap;html=1;fontFamily=Lucida Console;" vertex="1" parent="1">
          <mxGeometry x="140" y="300" width="120" height="60" as="geometry" />
        </mxCell>
        <mxCell id="4zu3oJTmtso76oh-K1po-14" value="Data Standardizing&lt;div&gt;&lt;font style=&quot;font-size: 10px;&quot;&gt;(Min/Max Scaler)&amp;nbsp;&lt;/font&gt;&lt;/div&gt;" style="rounded=0;whiteSpace=wrap;html=1;fontFamily=Lucida Console;" vertex="1" parent="1">
          <mxGeometry x="480" y="200" width="120" height="60" as="geometry" />
        </mxCell>
        <mxCell id="4zu3oJTmtso76oh-K1po-16" value="Assigning PV Affinity Scores" style="rounded=0;whiteSpace=wrap;html=1;fontFamily=Lucida Console;" vertex="1" parent="1">
          <mxGeometry x="320" y="300" width="120" height="60" as="geometry" />
        </mxCell>
      </root>
    </mxGraphModel>
  </diagram>
</mxfile>
